<svg width="40" height="37" viewBox="0 0 40 37" fill="none" xmlns="http://www.w3.org/2000/svg">
<path d="M37.0213 28.7832V33.8896H2.97879V28.7832C2.97879 27.847 3.74475 27.0811 4.68092 27.0811H35.3192C36.2554 27.0811 37.0213 27.847 37.0213 28.7832Z" fill="#766D65" stroke="#766D65" stroke-width="5" stroke-miterlimit="10" stroke-linecap="round" stroke-linejoin="round"/>
<path d="M11.4894 15.1665H8.0851V27.0814H11.4894V15.1665Z" fill="#766D65"/>
<path d="M18.2978 15.1665H14.8936V27.0814H18.2978V15.1665Z" fill="#766D65"/>
<path d="M25.1064 15.1665H21.7021V27.0814H25.1064V15.1665Z" fill="#766D65"/>
<path d="M31.9149 15.1665H28.5106V27.0814H31.9149V15.1665Z" fill="#766D65"/>
<path d="M37.7872 35H2.21277C1.54979 35 1 34.5467 1 34C1 33.4533 1.54979 33 2.21277 33H37.7872C38.4502 33 39 33.4533 39 34C39 34.5467 38.4502 35 37.7872 35Z" fill="#766D65"/>
<path d="M35.949 6.22979L20.6299 0.102128C20.2894 -0.0340426 19.7107 -0.0340426 19.3703 0.102128L4.05113 6.22979C3.45539 6.46808 2.97879 7.16596 2.97879 7.81277V13.4638C2.97879 14.3999 3.74475 15.1659 4.68092 15.1659H35.3192C36.2554 15.1659 37.0213 14.3999 37.0213 13.4638V7.81277C37.0213 7.16596 36.5448 6.46808 35.949 6.22979ZM20.0001 10.9106C18.5873 10.9106 17.4469 9.77021 17.4469 8.35745C17.4469 6.94468 18.5873 5.80425 20.0001 5.80425C21.4128 5.80425 22.5533 6.94468 22.5533 8.35745C22.5533 9.77021 21.4128 10.9106 20.0001 10.9106Z" fill="#766D65"/>
</svg>
