<?xml version="1.0" encoding="utf-8"?>
<!-- Generator: Adobe Illustrator 26.1.0, SVG Export Plug-In . SVG Version: 6.00 Build 0)  -->
<svg version="1.1" id="Layer_1" xmlns="http://www.w3.org/2000/svg" xmlns:xlink="http://www.w3.org/1999/xlink" x="0px" y="0px"
	 viewBox="0 0 512 512" style="enable-background:new 0 0 512 512;" xml:space="preserve">
<path d="M464,256c0-114.9-93.1-208-208-208S48,141.1,48,256s93.1,208,208,208S464,370.9,464,256z M0,256C0,114.6,114.6,0,256,0
	s256,114.6,256,256S397.4,512,256,512S0,397.4,0,256z"/>
<path d="M245.8,238.9l-51-88.3c-4.6-8-16.1-8-20.7,0l-51,88.3c-4.6,8,1.1,17.9,10.3,17.9h33.8v90.9c0,9.5,7.7,17.2,17.2,17.2
	c9.5,0,17.2-7.7,17.2-17.2v-90.9h33.8C244.6,256.8,250.3,246.8,245.8,238.9z"/>
<path d="M266.2,259.7l51,88.3c4.6,8,16.1,8,20.7,0l51-88.3c4.6-8-1.1-17.9-10.3-17.9h-33.8v-90.9c0-9.5-7.7-17.2-17.2-17.2
	c-9.5,0-17.2,7.7-17.2,17.2v90.9h-33.8C267.4,241.8,261.7,251.8,266.2,259.7z"/>
</svg>
