<?xml version="1.0" encoding="utf-8"?>
<!-- Generator: Adobe Illustrator 26.1.0, SVG Export Plug-In . SVG Version: 6.00 Build 0)  -->
<svg version="1.1" id="Layer_1" xmlns="http://www.w3.org/2000/svg" xmlns:xlink="http://www.w3.org/1999/xlink" x="0px" y="0px"
	 viewBox="0 0 576 512" style="enable-background:new 0 0 576 512;" xml:space="preserve">
<style type="text/css">
	.st0{fill:#FFDF00;}
</style>
<path class="st0" d="M544.7,218.2L433.6,328.4L459.8,484c1.5,9-2.2,18.1-9.6,23.5c-7.4,5.4-17.3,6-25.3,1.7l-137-73.2L151,509.1
	c-8.1,4.3-17.9,3.7-25.3-1.7c-7.4-5.4-11.2-14.5-9.7-23.5l26.2-155.6L31.1,218.2c-6.5-6.4-8.7-15.9-5.9-24.5
	c2.8-8.6,10.3-14.9,19.3-16.3l153.2-22.6l68.6-141.3C270.4,5.2,278.7,0,287.9,0c9.2,0,17.6,5.2,21.6,13.5l68.6,141.3l153.2,22.6
	c9,1.3,16.5,7.6,19.3,16.3C553.4,202.4,551.1,211.8,544.7,218.2z"/>
</svg>
